<defs>
<font horiz-adv-x="423" ><font-face
    font-family="cabin-medium"
    units-per-em="1000"
    panose-1="2 11 8 3 5 2 2 2 0 4"
    ascent="965"
    descent="-250"
    alphabetic="0" />
<missing-glyph horiz-adv-x="250" d="M168 247H66V363H168V247Z" />
<glyph unicode=" " glyph-name="space" horiz-adv-x="225" />
<glyph unicode="!" glyph-name="exclam" horiz-adv-x="244" d="M184 750L157 200H87L60 750H184ZM171 0H73V99H171V0Z" />
<glyph unicode="&quot;" glyph-name="quotedbl" horiz-adv-x="401" d="M362 750L342 450H279L259 750H362ZM143 750L123 450H59L39 750H143Z" />
<glyph unicode="#" glyph-name="numbersign" horiz-adv-x="705" d="M674 509L643 419H528L485 310H612L569 214H449L363 -11H277L363 214H237L151 -11H66L151 214H32L74 310H188L230 419H106L136 509H264L338 700H423L349 509H476L550 700H635L561 509H674ZM442
419H316L273 310H399L442 419Z" />
<glyph unicode="$" glyph-name="dollar" horiz-adv-x="516" d="M289 81L305 -32H209L226 80Q109 86 50 119L64 234Q136 174 251 174Q358 174 358 234Q358 260 335 279T276 309T200 334T123 363T65 407T41 475Q41 532 85 577T226 632L209 748H305L289 632Q393 626
449 594L440 492Q336 542 271 542Q153 542 153 487Q153 463 177 446T238 419T317 396T396 366T456 316T481 235Q481 211 474 189T448 143T388 103T289 81Z" />
<glyph unicode="%" glyph-name="percent" horiz-adv-x="839" d="M652 -12Q585 -12 545 37T504 171Q504 258 548 309T657 361T764 312T806 179Q806 91 764 40T652 -12ZM661 700L241 -12H156L577 700H661ZM181 334Q115 334 75 382T34 515Q34 602 77 653T186 705T292
657T333 524Q333 436 291 385T181 334ZM692 306T654 306T590 270T564 171Q564 110 587 78T651 46Q694 46 718 80T743 179Q743 238 718 272ZM185 646Q149 646 124 611T98 515Q98 458 122 426T182 393Q221 393 245 428T270 524Q270 579 245 612T185 646Z" />
<glyph unicode="&amp;" glyph-name="ampersand" horiz-adv-x="615" d="M603 0H493L454 42Q376 -23 267 -23Q150 -23 92 29T34 164Q34 278 159 366Q84 458 84 537Q84 612 141 657T281 703Q354 703 392 667T430 571Q430 507 388 458T273 361L446 178Q472 225 475
351H569Q566 203 510 107L603 0ZM271 624Q232 624 206 601T179 534Q179 477 231 415Q265 441 278 452T311 482T336 518T343 555Q343 589 324 606T271 624ZM402 105L206 309Q135 252 135 172Q135 121 169 88T274 54Q356 54 402 105Z" />
<glyph unicode="&apos;" glyph-name="quotesingle" horiz-adv-x="188" d="M148 750L129 450H59L40 750H148Z" />
<glyph unicode="(" glyph-name="parenleft" horiz-adv-x="266" d="M242 -136H151Q96 -48 68 54T40 307T68 559T151 750H242Q122 551 122 307T242 -136Z" />
<glyph unicode=")" glyph-name="parenright" horiz-adv-x="266" d="M115 -136H24Q144 63 144 307T24 750H115Q170 662 198 560T226 307T198 55T115 -136Z" />
<glyph unicode="*" glyph-name="asterisk" horiz-adv-x="432" d="M312 422L217 556L122 419L77 462L190 570L32 631L63 686L206 593L185 749H248L225 593L369 686L400 630L242 572L357 465L312 422Z" />
<glyph unicode="+" glyph-name="plus" horiz-adv-x="461" d="M415 235H272V102H188V235H45V324H188V452H272V324H415V235Z" />
<glyph unicode="," glyph-name="comma" horiz-adv-x="221" d="M165 0L80 -109L56 -96L90 -9L57 0V101H165V0Z" />
<glyph unicode="-" glyph-name="hyphen" horiz-adv-x="422" d="M366 235H56V324H366V235Z" />
<glyph unicode="." glyph-name="period" horiz-adv-x="214" d="M158 0H56V101H158V0Z" />
<glyph unicode="/" glyph-name="slash" horiz-adv-x="536" d="M503 700L129 -85H18L391 700H503Z" />
<glyph unicode="0" glyph-name="zero" horiz-adv-x="710" d="M349 -14Q219 -14 140 82T61 338Q61 505 147 609T361 714Q486 714 567 615T649 357Q649 188 567 87T349 -14ZM359 619Q281 619 226 546T171 338Q171 212 220 147T351 82Q438 82 489 150T541 357Q541
482 489 550T359 619Z" />
<glyph unicode="1" glyph-name="one" horiz-adv-x="359" d="M260 0H151V548Q99 508 52 495L38 591Q77 603 118 634T179 700H260V0Z" />
<glyph unicode="2" glyph-name="two" horiz-adv-x="526" d="M471 0H52Q231 256 285 359T340 510Q340 562 310 590T227 619Q138 619 64 521L51 616Q68 647 120 680T251 714Q304 714 343 697T403 651T435 590T445 523Q445 454 398 357T241 99H471V0Z" />
<glyph unicode="3" glyph-name="three" horiz-adv-x="545" d="M228 -14Q168 -14 111 5T39 39L65 138Q149 85 227 85Q288 85 329 114T371 212Q371 269 338 304T219 339H140L150 423H190Q274 423 309 450T345 530Q345 620 232 620Q146 620 101 582L83 668Q100 685
142 699T244 714Q307 714 351 697T417 651T448 593T458 532Q458 446 375 388Q483 344 483 215Q483 106 408 46T228 -14Z" />
<glyph unicode="4" glyph-name="four" horiz-adv-x="567" d="M509 190H424V0H314V190H13L335 700H424V282H509V190ZM314 282V521L170 282H314Z" />
<glyph unicode="5" glyph-name="five" horiz-adv-x="541" d="M224 -14Q172 -14 116 2T51 31L76 129Q144 84 222 84Q287 84 332 123T378 230Q378 288 333 317T181 347H88L131 700H450L439 601H214L195 440Q351 439 420 390T489 234Q489 122 411 54T224 -14Z" />
<glyph unicode="6" glyph-name="six" horiz-adv-x="566" d="M280 -14Q181 -14 121 48T61 244Q61 337 93 425T171 571T269 664T361 700L433 658Q398 646 362 624T289 566T222 479T179 366Q221 420 311 420Q403 420 463 368T523 218T456 53T280 -14ZM303 331Q246
331 208 296T169 202T205 112T292 80Q351 80 385 120T419 216Q419 262 392 296T303 331Z" />
<glyph unicode="7" glyph-name="seven" horiz-adv-x="505" d="M495 700L196 0H84L341 601H40V700H495Z" />
<glyph unicode="8" glyph-name="eight" horiz-adv-x="606" d="M294 -14Q177 -14 118 46T58 188Q58 303 183 376Q98 444 98 539Q98 613 147 663T307 713Q413 713 461 668T509 554Q509 502 485 466T403 387Q548 332 548 200Q548 117 483 52T294 -14ZM354 623T302
623T222 598T194 531Q194 497 220 469T297 422Q353 438 379 469T406 540Q406 578 380 600ZM305 336Q245 325 207 288T168 191Q168 136 202 107T299 78Q360 78 399 111T438 199Q438 251 401 286T305 336Z" />
<glyph unicode="9" glyph-name="nine" horiz-adv-x="568" d="M287 714Q384 714 445 653T506 457Q506 356 476 267T400 121T305 32T212 0L136 42Q172 54 209 76T286 133T354 219T389 329Q370 305 331 292T256 279Q158 279 101 330T44 480Q44 580 111 647T287 714ZM266
369Q322 369 360 404T399 499T363 589T277 620Q218 620 185 580T151 485Q151 438 178 404T266 369Z" />
<glyph unicode=":" glyph-name="colon" horiz-adv-x="214" d="M158 339H56V440H158V339ZM158 0H56V101H158V0Z" />
<glyph unicode=";" glyph-name="semicolon" horiz-adv-x="225" d="M169 339H57V440H169V339ZM165 -1L80 -109L56 -96L90 -9L57 0V101H165V-1Z" />
<glyph unicode="&lt;" glyph-name="less" horiz-adv-x="416" d="M358 78H245L30 284L245 490H358L143 284L358 78Z" />
<glyph unicode="=" glyph-name="equal" horiz-adv-x="500" d="M435 315H65V397H435V315ZM435 157H65V239H435V157Z" />
<glyph unicode="&gt;" glyph-name="greater" horiz-adv-x="417" d="M387 284L172 78H59L274 284L59 490H172L387 284Z" />
<glyph unicode="?" glyph-name="question" horiz-adv-x="440" d="M232 200H164Q163 213 163 225T162 241T161 248Q161 289 183 332T231 405T280 478T302 560Q302 615 268 644T184 673Q141 673 105 652T55 606L29 682Q49 713 92 731T188 750Q284 750 340 691T397
562Q397 520 371 473T315 390T258 308T232 222V200ZM250 0H148V99H250V0Z" />
<glyph unicode="@" glyph-name="at" horiz-adv-x="719" d="M543 379Q492 432 421 432Q328 432 248 344T167 151Q167 103 189 72T262 40Q305 40 357 72T438 156Q438 154 437 141T435 125Q435 93 448 68T490 42T558 61T623 106Q575 19 487 -34T295 -87Q180 -87 114
-19T47 170Q47 331 158 442T424 553Q541 553 607 485T673 299Q673 226 648 159Q629 129 592 112T525 94Q488 94 488 147Q488 171 495 202T518 286T543 379ZM422 371Q468 371 476 349Q462 267 402 187T291 106Q269 106 258 124T247 170Q247 249 307 310T422 371Z"
/>
<glyph unicode="A" glyph-name="A" horiz-adv-x="620" d="M614 0H502L438 182H182L117 0H6L256 700H363L614 0ZM403 281L310 543L217 281H403Z" />
<glyph unicode="B" glyph-name="B" horiz-adv-x="607" d="M329 0H79V700H248Q315 700 359 694T440 669T495 616T513 525Q513 475 502 441T455 373Q519 349 546 309T574 207Q574 0 329 0ZM283 607H185V412H306Q328 412 343 415T375 428T399 459T408 513Q408 570
377 588T283 607ZM328 321H185V94H293Q380 94 422 116T464 204Q464 321 328 321Z" />
<glyph unicode="C" glyph-name="C" horiz-adv-x="614" d="M386 -14Q233 -14 135 86T37 350T134 614T385 714Q497 714 581 673L570 573Q458 615 385 615Q275 615 214 541T153 350T214 159T387 85Q461 85 570 126L581 26Q492 -14 386 -14Z" />
<glyph unicode="D" glyph-name="D" horiz-adv-x="725" d="M339 0H79V700H339Q494 700 590 607T686 350T590 94T339 0ZM339 601H185V99H339Q451 99 510 166T570 350T511 533T339 601Z" />
<glyph unicode="E" glyph-name="E" horiz-adv-x="559" d="M523 0H79V700H513V601H186V415H444V316H186V99H523V0Z" />
<glyph unicode="F" glyph-name="F" horiz-adv-x="523" d="M507 601H185V415H434V316H185V0H79V700H507V601Z" />
<glyph unicode="G" glyph-name="G" horiz-adv-x="670" d="M381 -14Q232 -14 135 86T38 351T136 614T388 714Q507 714 597 674L586 577Q485 615 391 615Q275 615 215 542T154 351Q154 231 218 158T404 85Q466 85 514 101V258H415V351H620V39Q579 17 510 2T381 -14Z" />
<glyph unicode="H" glyph-name="H" horiz-adv-x="744" d="M665 0H559V315H185V0H79V700H185V417H559V700H665V0Z" />
<glyph unicode="I" glyph-name="I" horiz-adv-x="265" d="M186 0H79V700H186V0Z" />
<glyph unicode="J" glyph-name="J" horiz-adv-x="264" d="M21 -172H-2L-12 -102H-1Q45 -102 62 -79T79 -1V700H185V-29Q185 -172 21 -172Z" />
<glyph unicode="K" glyph-name="K" horiz-adv-x="592" d="M588 0H473L219 371L473 700H588L334 371L588 0ZM185 0H79V700H185V0Z" />
<glyph unicode="L" glyph-name="L" horiz-adv-x="501" d="M495 0H79V700H185V99H495V0Z" />
<glyph unicode="M" glyph-name="M" horiz-adv-x="818" d="M772 0H660L596 508L410 159L221 508L157 0H46L141 700H230L409 363L587 700H677L772 0Z" />
<glyph unicode="N" glyph-name="N" horiz-adv-x="705" d="M626 0H537L185 528V0H79V700H190L519 201V700H626V0Z" />
<glyph unicode="O" glyph-name="O" horiz-adv-x="766" d="M535 -14T383 -14T135 86T38 350T134 614T383 714T631 614T728 350T632 86ZM493 615T383 615T214 541T154 350T213 159T383 85T552 159T612 350T553 541Z" />
<glyph unicode="P" glyph-name="P" horiz-adv-x="581" d="M332 240H189V0H79V700H295Q345 700 381 696T453 678T509 640T544 576T558 481Q558 414 537 365T480 289T408 252T332 240ZM295 607H189V337H314Q385 337 416 371T448 478Q448 549 415 578T295 607Z" />
<glyph unicode="Q" glyph-name="Q" horiz-adv-x="766" d="M719 68L661 -1L594 54Q501 -14 383 -14Q231 -14 135 86T38 350T134 614T383 714T631 614T728 350Q728 222 658 118L719 68ZM494 615T383 615T213 542T154 350T213 159T383 85Q467 85 516 119L420 198L478
269L577 183Q618 251 618 350Q618 467 556 541Z" />
<glyph unicode="R" glyph-name="R" horiz-adv-x="610" d="M594 0H481L329 269H188V0H79V700H316Q431 700 494 653T557 496Q557 361 432 297L594 0ZM305 613H188V370H320Q378 370 412 400T446 493Q446 613 305 613Z" />
<glyph unicode="S" glyph-name="S" horiz-adv-x="584" d="M281 -14Q133 -14 51 33L64 156Q153 85 283 85Q351 85 393 108T436 182Q436 204 426 222T403 253T363 278T317 298T261 317Q223 329 206 335T156 355T108 381T74 413T48 456T40 509Q40 545 53 579T93 644T172
695T292 714Q357 714 419 699T513 664L502 553Q380 616 300 616Q242 616 198 593T153 523Q153 481 190 458T301 411Q338 400 353 395T401 377T450 355T490 327T525 289T544 243T553 184Q553 150 544 120T508 58T424 6T281 -14Z" />
<glyph unicode="T" glyph-name="T" horiz-adv-x="548" d="M529 601H327V0H220V601H19V700H529V601Z" />
<glyph unicode="U" glyph-name="U" horiz-adv-x="722" d="M505 -14T361 -14T144 68T71 298V700H177V343Q177 287 184 245T210 165T267 106T361 85T455 105T511 164T537 245T545 343V700H651V298Q651 151 578 69Z" />
<glyph unicode="V" glyph-name="V" horiz-adv-x="649" d="M645 700L384 0H265L3 700H114L325 130L534 700H645Z" />
<glyph unicode="W" glyph-name="W" horiz-adv-x="968" d="M960 700L755 0H647L485 537L320 0H209L13 700H124L274 141L443 691H530L702 146L849 700H960Z" />
<glyph unicode="X" glyph-name="X" horiz-adv-x="609" d="M607 0H490L299 276L123 0H6L245 349L10 700H133L307 436L485 700H601L358 362L607 0Z" />
<glyph unicode="Y" glyph-name="Y" horiz-adv-x="577" d="M581 700L343 319V0H234V319L-5 700H108L288 414L468 700H581Z" />
<glyph unicode="Z" glyph-name="Z" horiz-adv-x="550" d="M542 700L184 99H497V0H9L366 601H54V700H542Z" />
<glyph unicode="[" glyph-name="bracketleft" horiz-adv-x="330" d="M326 -135H69V750H326V668H162V-53H326V-135Z" />
<glyph unicode="\" glyph-name="backslash" horiz-adv-x="532" d="M514 -85H407L33 700H140L514 -85Z" />
<glyph unicode="]" glyph-name="bracketright" horiz-adv-x="336" d="M267 -135H10V-38H174V652H10V750H267V-135Z" />
<glyph unicode="^" glyph-name="asciicircum" horiz-adv-x="511" d="M461 424L255 639L49 424V544L255 759L461 544V424Z" />
<glyph unicode="_" glyph-name="underscore" horiz-adv-x="564" d="M562 -125H2V-36H562V-125Z" />
<glyph unicode="`" glyph-name="grave" horiz-adv-x="303" d="M245 592L58 655V738L245 645V592Z" />
<glyph unicode="a" glyph-name="a" horiz-adv-x="487" d="M478 72L465 -10H445Q391 -10 366 6T323 57Q266 -10 172 -10Q106 -10 65 30T24 135Q24 184 52 220T126 274T218 301T312 311Q311 370 288 391T211 413Q147 413 79 372L67 454Q142 503 239 503Q331 503
372 452T414 279V167Q414 111 423 92T466 72H478ZM313 126V242Q129 234 129 140Q129 70 202 70Q268 70 313 126Z" />
<glyph unicode="b" glyph-name="b" horiz-adv-x="562" d="M301 -10Q264 -10 225 6T160 50L152 0H60V750H162V450Q211 503 302 503Q407 503 469 428T531 246Q531 138 467 64T301 -10ZM292 415Q233 415 195 371T156 246Q156 165 194 122T292 78Q354 78 390 125T427
246Q427 321 391 368T292 415Z" />
<glyph unicode="c" glyph-name="c" horiz-adv-x="452" d="M275 -10Q159 -10 95 63T31 247Q31 359 94 431T274 503Q369 503 425 471L412 381Q350 415 284 415Q211 415 173 371T135 247T173 123T284 77Q352 77 412 111L424 27Q366 -10 275 -10Z" />
<glyph unicode="d" glyph-name="d" horiz-adv-x="561" d="M501 0H409L401 50Q375 22 337 6T261 -10Q160 -10 96 64T31 246Q31 353 93 428T261 503Q349 503 400 451V750H501V0ZM268 415Q207 415 171 368T135 246Q135 173 171 126T268 78Q328 78 368 121T408 244Q408
323 368 369T268 415Z" />
<glyph unicode="e" glyph-name="e" horiz-adv-x="515" d="M480 237H136Q153 78 308 78Q385 78 453 111L463 28Q383 -10 298 -10Q172 -10 102 64T31 249Q31 357 96 430T271 503Q366 503 425 446T485 292Q485 262 480 237ZM271 415Q168 415 142 307H381Q381 356
354 385T271 415Z" />
<glyph unicode="f" glyph-name="f" horiz-adv-x="335" d="M318 412H194V0H92V412H12L23 493H92V616Q92 674 122 712T208 750Q272 750 314 739L301 654Q272 662 243 662Q211 662 203 643T194 556V493H318V412Z" />
<glyph unicode="g" glyph-name="g" horiz-adv-x="499" d="M257 -250Q141 -250 84 -206T26 -102Q26 -26 111 9Q63 34 63 74Q63 119 118 145Q36 205 36 306Q36 390 89 446T237 503Q305 503 358 469Q408 495 473 495H489L479 429H449Q431 429 401 424Q441 374 441
309Q441 228 388 171T242 113Q209 113 177 121Q158 111 158 96Q158 78 186 70T301 48Q330 43 351 39T403 23T452 -2T486 -40T501 -94Q501 -161 437 -205T257 -250ZM238 424Q187 424 159 392T131 308Q131 253 160 222T239 190Q290 190 318 223T346 310T317 394T238
424ZM272 -27Q248 -27 193 -16Q160 -27 139 -49T118 -97Q118 -131 155 -152T258 -174T363 -152T403 -99Q403 -48 272 -27Z" />
<glyph unicode="h" glyph-name="h" horiz-adv-x="545" d="M491 0H389V264Q389 346 364 380T278 415Q200 415 162 358V0H60V750H162V450Q212 503 291 503Q491 503 491 264V0Z" />
<glyph unicode="i" glyph-name="i" horiz-adv-x="222" d="M162 592H60V700H162V592ZM162 0H60V493H162V0Z" />
<glyph unicode="j" glyph-name="j" horiz-adv-x="222" d="M37 -239L2 -242L-8 -162Q36 -159 48 -143T60 -69V493H162V-108Q162 -169 126 -201T37 -239ZM162 592H60V700H162V592Z" />
<glyph unicode="k" glyph-name="k" horiz-adv-x="462" d="M162 0H60V750H162V278L335 493H455L259 263L458 0H338L162 240V0Z" />
<glyph unicode="l" glyph-name="l" horiz-adv-x="245" d="M233 72L220 -10H186Q121 -10 90 25T59 112V750H160V164Q160 103 173 88T233 72Z" />
<glyph unicode="m" glyph-name="m" horiz-adv-x="873" d="M818 0H717V281Q717 351 692 383T609 415Q490 415 490 293V0H388V270Q388 352 361 383T279 415Q197 415 162 359V0H60V493H141L150 446Q215 503 290 503Q399 503 452 412Q500 503 626 503Q721 503 769
447T818 282V0Z" />
<glyph unicode="n" glyph-name="n" horiz-adv-x="557" d="M502 0H400V270Q400 346 373 380T282 415Q197 415 162 358V0H60V493H146L153 449Q216 503 297 503Q502 503 502 270V0Z" />
<glyph unicode="o" glyph-name="o" horiz-adv-x="555" d="M277 -10Q164 -10 98 63T31 246T97 429T277 503T457 430T524 246T458 63T277 -10ZM345 415T277 415T172 370T135 246T172 123T277 78T382 122T420 246T383 370Z" />
<glyph unicode="p" glyph-name="p" horiz-adv-x="561" d="M302 -10Q265 -10 226 5T161 49V-242H60V493H143L153 438Q185 471 219 487T303 503Q408 503 469 428T530 246Q530 134 471 62T302 -10ZM293 415Q234 415 195 370T156 246Q156 165 195 122T293 78Q354 78
390 125T426 246Q426 321 391 368T293 415Z" />
<glyph unicode="q" glyph-name="q" horiz-adv-x="561" d="M258 -10Q150 -10 91 62T31 246Q31 353 92 428T258 503Q308 503 342 487T408 438L418 493H501V-242H400V49Q374 21 335 6T258 -10ZM268 415Q206 415 171 368T135 246Q135 173 171 126T268 78Q327 78 366
121T405 246Q405 325 366 370T268 415Z" />
<glyph unicode="r" glyph-name="r" horiz-adv-x="328" d="M328 508L307 403H271Q241 403 210 385T166 344V0H60V493H149L157 422Q235 508 312 508H328Z" />
<glyph unicode="s" glyph-name="s" horiz-adv-x="419" d="M201 -10Q93 -10 33 31L44 124Q66 106 108 90T197 74Q242 74 264 90T287 133Q287 165 261 182T191 211Q157 221 138 228T92 251T54 292T41 352Q41 415 85 459T225 503Q304 503 366 469L355 379Q300 426
229 426Q188 426 163 411T138 363Q138 352 140 343T152 327T167 315T191 304T218 295T252 285Q279 277 298 269T341 244T378 200T391 136Q391 109 383 86T356 40T297 4T201 -10Z" />
<glyph unicode="t" glyph-name="t" horiz-adv-x="341" d="M319 72L311 -10H227Q162 -10 130 25T97 112V412H17L26 493H97V611L199 621V493H321V412H199V165Q199 100 213 86T292 72H319Z" />
<glyph unicode="u" glyph-name="u" horiz-adv-x="534" d="M474 0H381L374 46Q327 -10 247 -10Q55 -10 55 214V493H157V230Q157 153 183 116T266 78Q336 78 372 129V493H474V0Z" />
<glyph unicode="v" glyph-name="v" horiz-adv-x="491" d="M485 493L297 0H195L6 493H114L246 118L377 493H485Z" />
<glyph unicode="w" glyph-name="w" horiz-adv-x="723" d="M713 493L566 0H464L361 350L258 0H156L10 493H121L212 117L313 480H409L510 117L602 493H713Z" />
<glyph unicode="x" glyph-name="x" horiz-adv-x="479" d="M469 0H352L239 175L127 0H10L178 246L13 493H130L242 318L345 493H465L304 251L469 0Z" />
<glyph unicode="y" glyph-name="y" horiz-adv-x="515" d="M510 493L205 -242H97L209 26L4 493H117L262 144L397 493H510Z" />
<glyph unicode="z" glyph-name="z" horiz-adv-x="471" d="M448 493L201 84H441V0H22L269 410H32V493H448Z" />
<glyph unicode="{" glyph-name="braceleft" horiz-adv-x="306" d="M85 19Q85 38 88 87T92 161Q92 215 76 248T17 307Q58 332 75 365T92 454Q92 478 89 527T85 595Q85 670 133 709T300 750V667Q251 666 225 660T185 633T169 587T166 507Q166 494 167 465T169 422Q169
385 155 359T97 307Q141 282 155 259T169 201Q169 187 168 157T166 108Q166 53 168 29T184 -17T224 -45T300 -53V-135Q184 -133 135 -95T85 19Z" />
<glyph unicode="|" glyph-name="bar" horiz-adv-x="231" d="M162 -209H69V750H162V-209Z" />
<glyph unicode="}" glyph-name="braceright" horiz-adv-x="306" d="M221 19Q221 -57 172 -95T6 -135V-53Q55 -52 81 -46T121 -18T137 28T140 108Q140 126 139 156T137 201Q137 235 151 258T209 307Q165 333 151 359T137 422Q137 436 138 465T140 507Q140 562 138
586T122 632T82 660T6 667V750Q124 748 172 709T221 595Q221 576 218 527T214 454Q214 398 231 365T289 307Q247 282 231 249T214 161Q214 136 217 87T221 19Z" />
<glyph unicode="~" glyph-name="asciitilde" horiz-adv-x="460" d="M298 178Q275 178 230 202T168 226Q120 226 105 178L52 190Q61 236 94 260T163 284Q188 284 233 261T295 238Q339 238 360 288L409 275Q399 232 369 205T298 178Z" />
<glyph unicode="&#xa1;" glyph-name="exclamdown" horiz-adv-x="240" d="M58 -250L85 300H155L182 -250H58ZM71 500H169V401H71V500Z" />
<glyph unicode="&#xa2;" glyph-name="cent" horiz-adv-x="476" d="M296 88L312 -31H234L251 88Q146 102 90 174T34 347Q34 449 90 521T253 607L234 748H312L294 607Q378 603 426 574L417 486Q354 522 290 522Q223 522 185 473T147 347Q147 272 185 223T290 174Q356
174 417 209L426 121Q378 93 296 88Z" />
<glyph unicode="&#xa3;" glyph-name="sterling" horiz-adv-x="510" d="M457 613L421 567Q410 592 403 604T378 627T334 638Q296 638 276 617T250 566T244 485V389H436L421 321H240Q234 248 223 199T182 83H449V0H34Q85 67 110 143T146 321H53L67 389H150V507Q150
549 155 580T177 642T227 689T313 706Q427 706 457 613Z" />
<glyph unicode="&#xa4;" glyph-name="currency" horiz-adv-x="627" d="M567 59L527 26L450 127Q386 92 313 92T176 127L99 26L60 59L135 159Q61 239 61 348Q61 458 136 537L60 637L99 670L176 569Q243 604 313 604Q384 604 450 568L528 670L567 637L491 536Q565
456 565 348T490 158L567 59ZM384 528T313 528T203 478T163 348T202 219T313 168T423 218T463 348T424 477Z" />
<glyph unicode="&#xa5;" glyph-name="yen" horiz-adv-x="683" d="M656 700L402 323H563L539 267H395V202H563L539 143H395V0H288V143H115L137 202H288V267H115L137 323H282L28 700H135L342 404L549 700H656Z" />
<glyph unicode="&#xa6;" glyph-name="brokenbar" horiz-adv-x="228" d="M158 300H70V750H158V300ZM158 -210H70V172H158V-210Z" />
<glyph unicode="&#xa7;" glyph-name="section" horiz-adv-x="458" d="M322 187Q356 161 366 137T376 73Q376 10 336 -37T207 -84Q165 -84 124 -73T64 -45L75 33Q142 -11 206 -11Q250 -11 277 7T304 63Q304 99 277 120T210 155T132 184T66 236T38 331Q38 445 139
479Q82 521 82 586Q82 655 122 702T249 750Q292 750 332 738T395 710L383 632Q315 678 254 678Q212 678 186 657T159 601Q159 568 186 547T251 512T328 481T393 426T420 332Q420 229 322 187ZM202 428Q175 427 145 406T115 346Q115 267 267 229Q297 235 318 261T339
320Q339 395 202 428Z" />
<glyph unicode="&#xa8;" glyph-name="dieresis" horiz-adv-x="422" d="M335 598H256V700H335V598ZM166 598H87V700H166V598Z" />
<glyph unicode="&#xa9;" glyph-name="copyright" horiz-adv-x="701" d="M487 37T351 37T128 127T40 365Q40 513 127 603T351 693Q487 693 574 603T661 365Q661 218 574 128ZM351 639Q229 639 165 563T101 365T165 167T351 90T536 166T600 365T536 563T351 639ZM360
195Q290 195 245 241T200 363Q200 440 244 486T360 532Q411 532 454 512L446 443Q395 464 360 464Q318 464 297 437T275 363Q275 318 297 290T360 262Q397 262 446 284L454 216Q415 195 360 195Z" />
<glyph unicode="&#xaa;" glyph-name="ordfeminine" horiz-adv-x="355" d="M318 503L312 434H274Q256 434 238 442T211 461Q182 434 118 434Q82 434 58 457T33 521Q33 549 51 570T98 602T151 617T198 623Q194 657 149 657Q118 657 64 639L59 706Q114 727 172 727Q223
727 253 703T284 628V539Q284 516 288 510T306 503H318ZM199 505V568Q178 567 151 555T123 524Q123 496 160 496Q182 496 199 505Z" />
<glyph unicode="&#xab;" glyph-name="guillemotleft" horiz-adv-x="579" d="M540 78H423L274 284L423 490H540L391 284L540 78ZM279 78H163L14 284L163 490H279L131 284L279 78Z" />
<glyph unicode="&#xac;" glyph-name="logicalnot" horiz-adv-x="594" d="M524 151H456V334H64V406H524V151Z" />
<glyph unicode="&#xad;" glyph-name="uni00AD" horiz-adv-x="422" d="M366 230H56V324H366V230Z" />
<glyph unicode="&#xae;" glyph-name="registered" horiz-adv-x="701" d="M487 37T351 37T128 127T40 365Q40 513 127 603T351 693Q487 693 574 603T661 365Q661 218 574 128ZM351 640Q229 640 165 564T100 365T165 166T351 89T536 166T601 365T537 563T351 640ZM486
208H413L349 323H303V208H232V533H353Q407 533 436 510T466 430Q466 378 414 343L486 208ZM339 475H303V387H337Q392 387 392 432Q392 454 381 464T339 475Z" />
<glyph unicode="0;" glyph-name="degree" horiz-adv-x="331" d="M165 482Q105 482 69 521T33 618T69 715T165 755Q226 755 262 716T298 618T262 521T165 482ZM165 720Q128 720 107 691T85 618Q85 576 106 547T165 517Q204 517 224 546T245 618T224 690T165 720Z" />
<glyph unicode="1;" glyph-name="plusminus" horiz-adv-x="494" d="M432 321H284V183H210V321H62V397H210V532H284V397H432V321ZM432 38H62V114H432V38Z" />
<glyph unicode="2;" glyph-name="twosuperior" horiz-adv-x="307" d="M274 320H23Q93 414 130 474T176 555T184 592Q184 615 171 628T134 642Q83 642 41 579L31 651Q42 672 73 689T150 706Q208 706 234 676T261 605Q261 540 163 400H274V320Z" />
<glyph unicode="3;" glyph-name="threesuperior" horiz-adv-x="309" d="M127 312Q93 312 60 322T19 342L39 416Q46 407 72 400T123 392Q197 392 197 433Q197 462 184 478T133 495H77L83 556H112Q180 556 180 598Q180 639 125 639Q74 639 57 624L45 681Q55
691 81 698T135 706Q206 706 234 675T262 603Q262 550 230 530Q277 492 277 438Q277 378 233 345T127 312Z" />
<glyph unicode="4;" glyph-name="acute" horiz-adv-x="303" d="M245 655L58 592V645L245 738V655Z" />
<glyph unicode="5;" glyph-name="mu" horiz-adv-x="602" d="M563 72L548 -10H516Q438 -10 409 56Q348 -10 278 -10Q221 -10 174 20V-242H74V493H175V232Q175 153 200 116T289 78T397 130V493H497V171Q497 115 506 94T543 72H563Z" />
<glyph unicode="6;" glyph-name="paragraph" horiz-adv-x="623" d="M580 619H507V0H445V619H358V0H307V238Q174 246 104 313T33 471Q33 564 107 632T321 700H580V619Z" />
<glyph unicode="7;" glyph-name="middot" horiz-adv-x="236" d="M180 213H56V343H180V213Z" />
<glyph unicode="8;" glyph-name="cedilla" horiz-adv-x="303" d="M287 -53L194 -186L139 -193L208 -60L287 -53Z" />
<glyph unicode="9;" glyph-name="onesuperior" horiz-adv-x="219" d="M159 320H77V585Q74 584 66 582T49 577T30 574L25 639Q42 641 65 660T95 698H159V320Z" />
<glyph unicode="a;" glyph-name="ordmasculine" horiz-adv-x="374" d="M258 434T187 434T74 477T32 581T74 684T187 727T300 685T342 581T300 477ZM218 662T187 662T138 639T119 581T137 523T187 500T236 523T255 581T237 639Z" />
<glyph unicode="b;" glyph-name="guillemotright" horiz-adv-x="579" d="M565 284L417 78H300L449 284L300 490H417L565 284ZM306 284L157 78H40L190 284L40 490H157L306 284Z" />
<glyph unicode="c;" glyph-name="onequarter" horiz-adv-x="722" d="M173 320H91V585Q88 584 80 582T63 577T44 574L39 639Q56 641 79 660T109 698H173V320ZM545 700L171 -85H60L433 700H545ZM689 103H640V0H558V103H383L570 378H640V165H689V103ZM558 165V263L491
165H558Z" />
<glyph unicode="d;" glyph-name="onehalf" horiz-adv-x="730" d="M543 700L169 -85H58L431 700H543ZM695 0H444Q514 94 551 154T597 235T605 272Q605 295 592 308T555 322Q504 322 462 259L452 331Q463 352 494 369T571 386Q629 386 655 356T682 285Q682 220
584 80H695V0ZM171 320H89V585Q86 584 78 582T61 577T42 574L37 639Q54 641 77 660T107 698H171V320Z" />
<glyph unicode="e;" glyph-name="threequarters" horiz-adv-x="891" d="M713 700L339 -85H228L601 700H713ZM140 312Q106 312 73 322T32 342L52 416Q59 407 85 400T136 392Q210 392 210 433Q210 462 197 478T146 495H90L96 556H125Q193 556 193 598Q193 639
138 639Q87 639 70 624L58 681Q68 691 94 698T148 706Q219 706 247 675T275 603Q275 550 243 530Q290 492 290 438Q290 378 246 345T140 312ZM857 103H808V0H726V103H551L738 378H808V165H857V103ZM726 165V263L659 165H726Z" />
<glyph unicode="f;" glyph-name="questiondown" horiz-adv-x="442" d="M219 300H287Q288 287 288 275T289 259T290 252Q290 211 268 168T220 95T171 22T149 -60Q149 -115 183 -144T267 -173Q310 -173 345 -152T396 -106L422 -182Q402 -213 359 -231T263 -250Q167
-250 111 -191T54 -62Q54 -20 80 27T136 110T193 192T219 278V300ZM201 500H303V401H201V500Z" />
<glyph unicode="0;" glyph-name="Agrave" horiz-adv-x="620" d="M614 0H502L438 182H182L117 0H6L256 700H363L614 0ZM403 281L310 543L217 281H403ZM404 799L217 862V945L404 852V799Z" />
<glyph unicode="1;" glyph-name="Aacute" horiz-adv-x="620" d="M614 0H502L438 182H182L117 0H6L256 700H363L614 0ZM403 281L310 543L217 281H403ZM404 862L217 799V852L404 945V862Z" />
<glyph unicode="2;" glyph-name="Acircumflex" horiz-adv-x="620" d="M614 0H502L438 182H182L117 0H6L256 700H363L614 0ZM403 281L310 543L217 281H403ZM457 804L310 882L163 804V853L310 954L457 853V804Z" />
<glyph unicode="3;" glyph-name="Atilde" horiz-adv-x="620" d="M614 0H502L438 182H182L117 0H6L256 700H363L614 0ZM403 281L310 543L217 281H403ZM378 806Q355 806 310 830T248 854Q200 854 185 806L132 818Q141 864 174 888T243 913Q268 913 313 890T375
866Q419 866 440 916L489 903Q479 861 449 834T378 806Z" />
<glyph unicode="4;" glyph-name="Adieresis" horiz-adv-x="620" d="M614 0H502L438 182H182L117 0H6L256 700H363L614 0ZM403 281L310 543L217 281H403ZM434 805H355V907H434V805ZM265 805H186V907H265V805Z" />
<glyph unicode="5;" glyph-name="Aring" horiz-adv-x="620" d="M614 0H502L438 182H182L117 0H6L256 700H363L614 0ZM403 281L310 543L217 281H403ZM310 783Q262 783 234 809T206 872T234 935T310 962Q359 962 386 936T414 872T387 809T310 783ZM333 925T310
925T272 910T256 872Q256 848 271 834T310 819T348 833T364 872Q364 895 349 910Z" />
<glyph unicode="6;" glyph-name="AE" horiz-adv-x="866" d="M830 0H394V176H187L99 0H-8L334 700H820V600H514V415H750V316H514V99H830V0ZM394 279V598L235 279H394Z" />
<glyph unicode="7;" glyph-name="Ccedilla" horiz-adv-x="614" d="M386 -14Q233 -14 135 86T37 350T134 614T385 714Q497 714 581 673L570 573Q458 615 385 615Q275 615 214 541T153 350T214 159T387 85Q461 85 570 126L581 26Q492 -14 386 -14ZM380 -53L287
-186L232 -193L301 -60L380 -53Z" />
<glyph unicode="8;" glyph-name="Egrave" horiz-adv-x="559" d="M523 0H79V700H513V601H186V415H444V316H186V99H523V0ZM369 799L182 862V945L369 852V799Z" />
<glyph unicode="9;" glyph-name="Eacute" horiz-adv-x="559" d="M523 0H79V700H513V601H186V415H444V316H186V99H523V0ZM369 862L182 799V852L369 945V862Z" />
<glyph unicode="a;" glyph-name="Ecircumflex" horiz-adv-x="559" d="M523 0H79V700H513V601H186V415H444V316H186V99H523V0ZM422 804L275 882L128 804V853L275 954L422 853V804Z" />
<glyph unicode="b;" glyph-name="Edieresis" horiz-adv-x="559" d="M523 0H79V700H513V601H186V415H444V316H186V99H523V0ZM399 805H320V907H399V805ZM230 805H151V907H230V805Z" />
<glyph unicode="c;" glyph-name="Igrave" horiz-adv-x="265" d="M186 0H79V700H186V0ZM227 799L40 862V945L227 852V799Z" />
<glyph unicode="d;" glyph-name="Iacute" horiz-adv-x="265" d="M186 0H79V700H186V0ZM227 862L40 799V852L227 945V862Z" />
<glyph unicode="e;" glyph-name="Icircumflex" horiz-adv-x="265" d="M186 0H79V700H186V0ZM280 804L133 882L-14 804V853L133 954L280 853V804Z" />
<glyph unicode="f;" glyph-name="Idieresis" horiz-adv-x="265" d="M186 0H79V700H186V0ZM257 805H178V907H257V805ZM88 805H9V907H88V805Z" />
<glyph unicode="&#xd0;" glyph-name="Eth" horiz-adv-x="730" d="M346 0H88V308H-7V383H88V700H346Q500 700 595 607T691 350T596 94T346 0ZM346 601H191V383H320V308H191V99H346Q458 99 517 166T576 350T517 534T346 601Z" />
<glyph unicode="&#xd1;" glyph-name="Ntilde" horiz-adv-x="705" d="M626 0H537L185 528V0H79V700H190L519 201V700H626V0ZM420 806Q397 806 352 830T290 854Q242 854 227 806L174 818Q183 864 216 888T285 913Q310 913 355 890T417 866Q461 866 482 916L531 903Q521
861 491 834T420 806Z" />
<glyph unicode="&#xd2;" glyph-name="Ograve" horiz-adv-x="766" d="M535 -14T383 -14T135 86T38 350T134 614T383 714T631 614T728 350T632 86ZM493 615T383 615T214 541T154 350T213 159T383 85T552 159T612 350T553 541ZM476 799L289 862V945L476 852V799Z" />
<glyph unicode="&#xd3;" glyph-name="Oacute" horiz-adv-x="766" d="M535 -14T383 -14T135 86T38 350T134 614T383 714T631 614T728 350T632 86ZM493 615T383 615T214 541T154 350T213 159T383 85T552 159T612 350T553 541ZM476 862L289 799V852L476 945V862Z" />
<glyph unicode="&#xd4;" glyph-name="Ocircumflex" horiz-adv-x="766" d="M535 -14T383 -14T135 86T38 350T134 614T383 714T631 614T728 350T632 86ZM493 615T383 615T214 541T154 350T213 159T383 85T552 159T612 350T553 541ZM530 804L383 882L236 804V853L383
954L530 853V804Z" />
<glyph unicode="&#xd5;" glyph-name="Otilde" horiz-adv-x="766" d="M535 -14T383 -14T135 86T38 350T134 614T383 714T631 614T728 350T632 86ZM493 615T383 615T214 541T154 350T213 159T383 85T552 159T612 350T553 541ZM450 806Q427 806 382 830T320 854Q272
854 257 806L204 818Q213 864 246 888T315 913Q340 913 385 890T447 866Q491 866 512 916L561 903Q551 861 521 834T450 806Z" />
<glyph unicode="&#xd6;" glyph-name="Odieresis" horiz-adv-x="766" d="M535 -14T383 -14T135 86T38 350T134 614T383 714T631 614T728 350T632 86ZM493 615T383 615T214 541T154 350T213 159T383 85T552 159T612 350T553 541ZM507 805H428V907H507V805ZM338 805H259V907H338V805Z"
/>
<glyph unicode="&#xd7;" glyph-name="multiply" horiz-adv-x="441" d="M382 160L337 116L220 233L103 116L59 160L176 277L59 394L103 438L220 321L337 438L382 394L264 277L382 160Z" />
<glyph unicode="&#xd8;" glyph-name="Oslash" horiz-adv-x="765" d="M382 -13Q294 -13 212 28L172 -30H64L140 79Q38 189 38 350Q38 514 134 614T383 714Q470 714 549 675L578 716H685L621 623Q728 514 728 349Q728 186 631 87T382 -13ZM558 532L271 112Q329 87
383 87Q492 87 550 160T609 351Q609 465 558 532ZM382 613Q273 613 215 540T157 349Q157 256 205 172L490 589Q435 613 382 613Z" />
<glyph unicode="&#xd9;" glyph-name="Ugrave" horiz-adv-x="722" d="M505 -14T361 -14T144 68T71 298V700H177V343Q177 287 184 245T210 165T267 106T361 85T455 105T511 164T537 245T545 343V700H651V298Q651 151 578 69ZM454 799L267 862V945L454 852V799Z" />
<glyph unicode="&#xda;" glyph-name="Uacute" horiz-adv-x="722" d="M505 -14T361 -14T144 68T71 298V700H177V343Q177 287 184 245T210 165T267 106T361 85T455 105T511 164T537 245T545 343V700H651V298Q651 151 578 69ZM454 862L267 799V852L454 945V862Z" />
<glyph unicode="&#xdb;" glyph-name="Ucircumflex" horiz-adv-x="722" d="M505 -14T361 -14T144 68T71 298V700H177V343Q177 287 184 245T210 165T267 106T361 85T455 105T511 164T537 245T545 343V700H651V298Q651 151 578 69ZM508 804L361 882L214 804V853L361
954L508 853V804Z" />
<glyph unicode="&#xdc;" glyph-name="Udieresis" horiz-adv-x="722" d="M505 -14T361 -14T144 68T71 298V700H177V343Q177 287 184 245T210 165T267 106T361 85T455 105T511 164T537 245T545 343V700H651V298Q651 151 578 69ZM485 805H406V907H485V805ZM316 805H237V907H316V805Z"
/>
<glyph unicode="&#xdd;" glyph-name="Yacute" horiz-adv-x="577" d="M581 700L343 319V0H234V319L-5 700H108L288 414L468 700H581ZM390 862L203 799V852L390 945V862Z" />
<glyph unicode="&#xde;" glyph-name="Thorn" horiz-adv-x="568" d="M249 202H189V0H79V700H189V563H249Q331 563 382 557T473 532T531 480T549 391Q549 286 479 244T249 202ZM284 492H189V271H284Q442 271 442 384Q442 442 406 467T284 492Z" />
<glyph unicode="&#xdf;" glyph-name="germandbls" horiz-adv-x="557" d="M316 -15Q300 -15 262 -11V60Q354 61 397 78T440 146Q440 184 415 219T361 275T306 320T281 363Q281 376 292 391T318 423T350 459T377 507T388 565Q388 620 356 645T282 671Q236 671 210
642T184 569V-136H86V425H13L21 500H86V564Q86 645 147 697T283 750Q326 750 368 733T443 673T476 572Q476 532 460 496T426 438T391 397T375 370Q375 359 400 338T456 294T512 230T538 143Q538 65 475 25T316 -15Z" />
<glyph unicode="&#xe0;" glyph-name="agrave" horiz-adv-x="487" d="M478 72L465 -10H445Q391 -10 366 6T323 57Q266 -10 172 -10Q106 -10 65 30T24 135Q24 184 52 220T126 274T218 301T312 311Q311 370 288 391T211 413Q147 413 79 372L67 454Q142 503 239 503Q331
503 372 452T414 279V167Q414 111 423 92T466 72H478ZM313 126V242Q129 234 129 140Q129 70 202 70Q268 70 313 126ZM337 592L150 655V738L337 645V592Z" />
<glyph unicode="&#xe1;" glyph-name="aacute" horiz-adv-x="487" d="M478 72L465 -10H445Q391 -10 366 6T323 57Q266 -10 172 -10Q106 -10 65 30T24 135Q24 184 52 220T126 274T218 301T312 311Q311 370 288 391T211 413Q147 413 79 372L67 454Q142 503 239 503Q331
503 372 452T414 279V167Q414 111 423 92T466 72H478ZM313 126V242Q129 234 129 140Q129 70 202 70Q268 70 313 126ZM337 655L150 592V645L337 738V655Z" />
<glyph unicode="&#xe2;" glyph-name="acircumflex" horiz-adv-x="487" d="M478 72L465 -10H445Q391 -10 366 6T323 57Q266 -10 172 -10Q106 -10 65 30T24 135Q24 184 52 220T126 274T218 301T312 311Q311 370 288 391T211 413Q147 413 79 372L67 454Q142 503 239
503Q331 503 372 452T414 279V167Q414 111 423 92T466 72H478ZM313 126V242Q129 234 129 140Q129 70 202 70Q268 70 313 126ZM391 597L244 675L97 597V646L244 747L391 646V597Z" />
<glyph unicode="&#xe3;" glyph-name="atilde" horiz-adv-x="487" d="M478 72L465 -10H445Q391 -10 366 6T323 57Q266 -10 172 -10Q106 -10 65 30T24 135Q24 184 52 220T126 274T218 301T312 311Q311 370 288 391T211 413Q147 413 79 372L67 454Q142 503 239 503Q331
503 372 452T414 279V167Q414 111 423 92T466 72H478ZM313 126V242Q129 234 129 140Q129 70 202 70Q268 70 313 126ZM308 599Q285 599 240 623T178 647Q130 647 115 599L62 611Q71 657 104 681T173 706Q198 706 243 683T305 659Q349 659 370 709L419 696Q409 654
379 627T308 599Z" />
<glyph unicode="&#xe4;" glyph-name="adieresis" horiz-adv-x="487" d="M478 72L465 -10H445Q391 -10 366 6T323 57Q266 -10 172 -10Q106 -10 65 30T24 135Q24 184 52 220T126 274T218 301T312 311Q311 370 288 391T211 413Q147 413 79 372L67 454Q142 503 239
503Q331 503 372 452T414 279V167Q414 111 423 92T466 72H478ZM313 126V242Q129 234 129 140Q129 70 202 70Q268 70 313 126ZM368 598H289V700H368V598ZM199 598H120V700H199V598Z" />
<glyph unicode="&#xe5;" glyph-name="aring" horiz-adv-x="487" d="M478 72L465 -10H445Q391 -10 366 6T323 57Q266 -10 172 -10Q106 -10 65 30T24 135Q24 184 52 220T126 274T218 301T312 311Q311 370 288 391T211 413Q147 413 79 372L67 454Q142 503 239 503Q331
503 372 452T414 279V167Q414 111 423 92T466 72H478ZM313 126V242Q129 234 129 140Q129 70 202 70Q268 70 313 126ZM244 576Q196 576 168 602T140 665T168 728T244 755Q293 755 320 729T348 665T321 602T244 576ZM267 718T244 718T206 703T190 665Q190 641 205
627T244 612T282 626T298 665Q298 688 283 703Z" />
<glyph unicode="&#xe6;" glyph-name="ae" horiz-adv-x="798" d="M763 237H433Q437 156 480 114T591 72Q648 72 731 111L745 29Q660 -10 581 -10Q432 -10 380 96Q351 43 299 15T177 -14Q101 -14 62 22T22 121Q22 165 42 198T92 252T164 285T241 302T316 309Q310
365 286 389T208 413Q149 413 81 381L72 462Q159 503 236 503Q269 503 297 495T354 461T392 393Q410 446 461 474T575 503Q662 503 715 448T768 298Q768 269 763 237ZM571 415Q466 415 439 307H673Q673 358 648 386T571 415ZM324 240Q277 239 235 230T160 194T127
130Q127 99 147 84T199 69Q248 69 287 102T326 199Q326 224 324 240Z" />
<glyph unicode="&#xe7;" glyph-name="ccedilla" horiz-adv-x="452" d="M275 -10Q159 -10 95 63T31 247Q31 359 94 431T274 503Q369 503 425 471L412 381Q350 415 284 415Q211 415 173 371T135 247T173 123T284 77Q352 77 412 111L424 27Q366 -10 275 -10ZM331
-53L238 -186L183 -193L252 -60L331 -53Z" />
<glyph unicode="&#xe8;" glyph-name="egrave" horiz-adv-x="515" d="M480 237H136Q153 78 308 78Q385 78 453 111L463 28Q383 -10 298 -10Q172 -10 102 64T31 249Q31 357 96 430T271 503Q366 503 425 446T485 292Q485 262 480 237ZM271 415Q168 415 142 307H381Q381
356 354 385T271 415ZM351 592L164 655V738L351 645V592Z" />
<glyph unicode="&#xe9;" glyph-name="eacute" horiz-adv-x="515" d="M480 237H136Q153 78 308 78Q385 78 453 111L463 28Q383 -10 298 -10Q172 -10 102 64T31 249Q31 357 96 430T271 503Q366 503 425 446T485 292Q485 262 480 237ZM271 415Q168 415 142 307H381Q381
356 354 385T271 415ZM351 655L164 592V645L351 738V655Z" />
<glyph unicode="&#xea;" glyph-name="ecircumflex" horiz-adv-x="515" d="M480 237H136Q153 78 308 78Q385 78 453 111L463 28Q383 -10 298 -10Q172 -10 102 64T31 249Q31 357 96 430T271 503Q366 503 425 446T485 292Q485 262 480 237ZM271 415Q168 415 142 307H381Q381
356 354 385T271 415ZM404 597L257 675L110 597V646L257 747L404 646V597Z" />
<glyph unicode="&#xeb;" glyph-name="edieresis" horiz-adv-x="515" d="M480 237H136Q153 78 308 78Q385 78 453 111L463 28Q383 -10 298 -10Q172 -10 102 64T31 249Q31 357 96 430T271 503Q366 503 425 446T485 292Q485 262 480 237ZM271 415Q168 415 142 307H381Q381
356 354 385T271 415ZM381 598H302V700H381V598ZM212 598H133V700H212V598Z" />
<glyph unicode="&#xec;" glyph-name="igrave" horiz-adv-x="222" d="M162 0H60V493H162V0ZM205 592L18 655V738L205 645V592Z" />
<glyph unicode="&#xed;" glyph-name="iacute" horiz-adv-x="222" d="M162 0H60V493H162V0ZM205 655L18 592V645L205 738V655Z" />
<glyph unicode="&#xee;" glyph-name="icircumflex" horiz-adv-x="222" d="M162 0H60V493H162V0ZM258 597L111 675L-36 597V646L111 747L258 646V597Z" />
<glyph unicode="&#xef;" glyph-name="idieresis" horiz-adv-x="222" d="M162 0H60V493H162V0ZM235 598H156V700H235V598ZM66 598H-13V700H66V598Z" />
<glyph unicode="&#xf0;" glyph-name="eth" horiz-adv-x="519" d="M245 -12Q149 -12 86 48T22 202Q22 289 77 357T234 426Q311 426 362 377Q357 420 334 475T283 552Q210 501 143 492L110 553Q171 560 235 603Q175 655 115 655L150 701Q222 701 298 647Q334 679
356 710L409 697Q378 651 340 610Q402 549 440 454T478 257Q478 195 463 147T425 70T370 21T308 -5T245 -12ZM248 338Q193 338 161 301T129 213Q129 156 161 117T248 77Q299 77 331 112T364 208Q364 267 333 302T248 338Z" />
<glyph unicode="&#xf1;" glyph-name="ntilde" horiz-adv-x="557" d="M502 0H400V270Q400 346 373 380T282 415Q197 415 162 358V0H60V493H146L153 449Q216 503 297 503Q502 503 502 270V0ZM345 599Q322 599 277 623T215 647Q167 647 152 599L99 611Q108 657 141
681T210 706Q236 706 281 683T342 659Q386 659 407 709L456 696Q446 654 416 627T345 599Z" />
<glyph unicode="&#xf2;" glyph-name="ograve" horiz-adv-x="555" d="M277 -10Q164 -10 98 63T31 246T97 429T277 503T457 430T524 246T458 63T277 -10ZM345 415T277 415T172 370T135 246T172 123T277 78T382 122T420 246T383 370ZM370 592L183 655V738L370 645V592Z" />
<glyph unicode="&#xf3;" glyph-name="oacute" horiz-adv-x="555" d="M277 -10Q164 -10 98 63T31 246T97 429T277 503T457 430T524 246T458 63T277 -10ZM345 415T277 415T172 370T135 246T172 123T277 78T382 122T420 246T383 370ZM370 655L183 592V645L370 738V655Z" />
<glyph unicode="&#xf4;" glyph-name="ocircumflex" horiz-adv-x="555" d="M277 -10Q164 -10 98 63T31 246T97 429T277 503T457 430T524 246T458 63T277 -10ZM345 415T277 415T172 370T135 246T172 123T277 78T382 122T420 246T383 370ZM424 597L277 675L130 597V646L277
747L424 646V597Z" />
<glyph unicode="&#xf5;" glyph-name="otilde" horiz-adv-x="555" d="M277 -10Q164 -10 98 63T31 246T97 429T277 503T457 430T524 246T458 63T277 -10ZM345 415T277 415T172 370T135 246T172 123T277 78T382 122T420 246T383 370ZM345 599Q322 599 277 623T215
647Q167 647 152 599L99 611Q108 657 141 681T210 706Q236 706 281 683T342 659Q386 659 407 709L456 696Q446 654 416 627T345 599Z" />
<glyph unicode="&#xf6;" glyph-name="odieresis" horiz-adv-x="555" d="M277 -10Q164 -10 98 63T31 246T97 429T277 503T457 430T524 246T458 63T277 -10ZM345 415T277 415T172 370T135 246T172 123T277 78T382 122T420 246T383 370ZM401 598H322V700H401V598ZM232
598H153V700H232V598Z" />
<glyph unicode="&#xf7;" glyph-name="divide" horiz-adv-x="586" d="M339 428H238V534H339V428ZM523 240H63V321H523V240ZM339 20H238V126H339V20Z" />
<glyph unicode="&#xf8;" glyph-name="oslash" horiz-adv-x="567" d="M284 -9Q248 -9 204 1L186 -35H102L136 34Q31 112 31 249Q31 358 99 432T283 507Q320 507 361 496L379 534H466L430 465Q537 384 537 248Q537 139 469 65T284 -9ZM391 381L241 77Q272 72 285
72Q353 72 391 121T430 248Q430 286 420 324T391 381ZM283 426Q215 426 177 377T138 248Q138 185 176 117L324 420Q295 426 283 426Z" />
<glyph unicode="&#xf9;" glyph-name="ugrave" horiz-adv-x="534" d="M474 0H381L374 46Q327 -10 247 -10Q55 -10 55 214V493H157V230Q157 153 183 116T266 78Q336 78 372 129V493H474V0ZM371 592L184 655V738L371 645V592Z" />
<glyph unicode="&#xfa;" glyph-name="uacute" horiz-adv-x="534" d="M474 0H381L374 46Q327 -10 247 -10Q55 -10 55 214V493H157V230Q157 153 183 116T266 78Q336 78 372 129V493H474V0ZM371 655L184 592V645L371 738V655Z" />
<glyph unicode="&#xfb;" glyph-name="ucircumflex" horiz-adv-x="534" d="M474 0H381L374 46Q327 -10 247 -10Q55 -10 55 214V493H157V230Q157 153 183 116T266 78Q336 78 372 129V493H474V0ZM425 597L278 675L131 597V646L278 747L425 646V597Z" />
<glyph unicode="&#xfc;" glyph-name="udieresis" horiz-adv-x="534" d="M474 0H381L374 46Q327 -10 247 -10Q55 -10 55 214V493H157V230Q157 153 183 116T266 78Q336 78 372 129V493H474V0ZM402 598H323V700H402V598ZM233 598H154V700H233V598Z" />
<glyph unicode="&#xfd;" glyph-name="yacute" horiz-adv-x="515" d="M510 493L205 -242H97L209 26L4 493H117L262 144L397 493H510ZM350 655L163 592V645L350 738V655Z" />
<glyph unicode="&#xfe;" glyph-name="thorn" horiz-adv-x="578" d="M302 -10Q212 -10 162 45V-241H60V750H162V451Q220 503 306 503Q417 503 482 429T547 246T482 64T302 -10ZM365 415T294 415T189 370T155 246Q155 167 189 120T294 72T404 120T444 246T405 369Z" />
<glyph unicode="&#xff;" glyph-name="ydieresis" horiz-adv-x="515" d="M510 493L205 -242H97L209 26L4 493H117L262 144L397 493H510ZM380 598H301V700H380V598ZM211 598H132V700H211V598Z" />
</font>
</defs>
</svg>
